<svg width="40" height="40" viewBox="0 0 40 40" fill="none" xmlns="http://www.w3.org/2000/svg">
<path d="M20.0001 0C14.5683 0 13.8872 0.023043 11.754 0.120336C9.62524 0.21745 8.17139 0.555592 6.8992 1.04991C5.58402 1.56103 4.46867 2.24493 3.35683 3.35677C2.24493 4.46861 1.56103 5.58408 1.04997 6.89926C0.555532 8.17139 0.217509 9.62524 0.120276 11.754C0.0229834 13.8872 0 14.5683 0 20.0001C0 25.4317 0.0229834 26.1128 0.120276 28.246C0.217509 30.3748 0.555532 31.8286 1.04997 33.1007C1.56109 34.4159 2.24499 35.5313 3.35683 36.6432C4.46873 37.7551 5.58402 38.439 6.8992 38.9501C8.17139 39.4444 9.62524 39.7825 11.754 39.8797C13.8872 39.977 14.5683 40 20.0001 40C25.4317 40 26.1128 39.977 28.246 39.8797C30.3748 39.7825 31.8286 39.4444 33.1007 38.9501C34.4159 38.439 35.5313 37.7551 36.6432 36.6432C37.7551 35.5313 38.439 34.4159 38.9501 33.1007C39.4444 31.8286 39.7825 30.3748 39.8797 28.246C39.977 26.1128 40 25.4317 40 20.0001C40 14.5683 39.977 13.8872 39.8797 11.754C39.7825 9.62524 39.4444 8.17139 38.9501 6.89926C38.439 5.58408 37.7551 4.46861 36.6432 3.35677C35.5313 2.24493 34.4159 1.56103 33.1007 1.04991C31.8286 0.555592 30.3748 0.21745 28.246 0.120336C26.1128 0.023043 25.4317 0 20.0001 0ZM20.0001 3.60358C25.3402 3.60358 25.9728 3.624 28.0817 3.72022C30.0317 3.80912 31.0907 4.13493 31.7954 4.40883C32.729 4.77168 33.3952 5.20503 34.095 5.9049C34.795 6.60476 35.2283 7.27104 35.5912 8.20455C35.8651 8.9093 36.1909 9.96832 36.2798 11.9183C36.376 14.0272 36.3964 14.6598 36.3964 20C36.3964 25.3402 36.376 25.9728 36.2798 28.0817C36.1909 30.0317 35.8651 31.0907 35.5912 31.7954C35.2283 32.729 34.795 33.3952 34.095 34.095C33.3952 34.795 32.729 35.2283 31.7954 35.5912C31.0907 35.8651 30.0317 36.1909 28.0817 36.2798C25.9731 36.376 25.3406 36.3964 20 36.3964C14.6594 36.3964 14.027 36.376 11.9183 36.2797C9.96826 36.1909 8.9093 35.8651 8.20461 35.5912C7.27098 35.2283 6.60476 34.795 5.90496 34.095C5.20509 33.3952 4.77168 32.729 4.40883 31.7954C4.13493 31.0907 3.80918 30.0317 3.72022 28.0817C3.624 25.9728 3.60358 25.3402 3.60358 20C3.60358 14.6598 3.624 14.0272 3.72022 11.9183C3.80918 9.96826 4.13493 8.9093 4.40883 8.20461C4.77168 7.27098 5.20509 6.60476 5.9049 5.90496C6.60476 5.20503 7.27104 4.77168 8.20455 4.40883C8.9093 4.13493 9.96832 3.80912 11.9183 3.72022C14.0272 3.624 14.6598 3.60358 20 3.60358" fill="#888888"/>
<path d="M20.3804 27.5467C16.8147 27.5467 13.9243 24.4339 13.9243 20.5941C13.9243 16.7542 16.8147 13.6414 20.3804 13.6414C23.9459 13.6414 26.8364 16.7542 26.8364 20.5941C26.8364 24.4339 23.9459 27.5467 20.3804 27.5467ZM20.3804 9.88322C14.8874 9.88322 10.4346 14.6786 10.4346 20.5941C10.4346 26.5095 14.8874 31.3049 20.3804 31.3049C25.8733 31.3049 30.3261 26.5095 30.3261 20.5941C30.3261 14.6786 25.8733 9.88322 20.3804 9.88322ZM33.0433 9.46003C33.0433 10.8424 32.0027 11.963 30.7191 11.963C29.4355 11.963 28.3949 10.8424 28.3949 9.46003C28.3949 8.07769 29.4355 6.95703 30.7191 6.95703C32.0027 6.95703 33.0433 8.07769 33.0433 9.46003Z" fill="#888888"/>
</svg>
