<svg width="106" height="40" viewBox="0 0 106 40" fill="none" xmlns="http://www.w3.org/2000/svg">
<path d="M86.0001 0C80.5683 0 79.8872 0.023043 77.754 0.120336C75.6252 0.21745 74.1714 0.555592 72.8992 1.04991C71.584 1.56103 70.4687 2.24493 69.3568 3.35677C68.2449 4.46861 67.561 5.58408 67.05 6.89926C66.5555 8.17139 66.2175 9.62524 66.1203 11.754C66.023 13.8872 66 14.5683 66 20.0001C66 25.4317 66.023 26.1128 66.1203 28.246C66.2175 30.3748 66.5555 31.8286 67.05 33.1007C67.5611 34.4159 68.245 35.5313 69.3568 36.6432C70.4687 37.7551 71.584 38.439 72.8992 38.9501C74.1714 39.4444 75.6252 39.7825 77.754 39.8797C79.8872 39.977 80.5683 40 86.0001 40C91.4317 40 92.1128 39.977 94.246 39.8797C96.3748 39.7825 97.8286 39.4444 99.1007 38.9501C100.416 38.439 101.531 37.7551 102.643 36.6432C103.755 35.5313 104.439 34.4159 104.95 33.1007C105.444 31.8286 105.783 30.3748 105.88 28.246C105.977 26.1128 106 25.4317 106 20.0001C106 14.5683 105.977 13.8872 105.88 11.754C105.783 9.62524 105.444 8.17139 104.95 6.89926C104.439 5.58408 103.755 4.46861 102.643 3.35677C101.531 2.24493 100.416 1.56103 99.1007 1.04991C97.8286 0.555592 96.3748 0.21745 94.246 0.120336C92.1128 0.023043 91.4317 0 86.0001 0ZM86.0001 3.60358C91.3402 3.60358 91.9728 3.624 94.0817 3.72022C96.0317 3.80912 97.0907 4.13493 97.7954 4.40883C98.729 4.77168 99.3952 5.20503 100.095 5.9049C100.795 6.60476 101.228 7.27104 101.591 8.20455C101.865 8.9093 102.191 9.96832 102.28 11.9183C102.376 14.0272 102.396 14.6598 102.396 20C102.396 25.3402 102.376 25.9728 102.28 28.0817C102.191 30.0317 101.865 31.0907 101.591 31.7954C101.228 32.729 100.795 33.3952 100.095 34.095C99.3952 34.795 98.729 35.2283 97.7954 35.5912C97.0907 35.8651 96.0317 36.1909 94.0817 36.2798C91.9731 36.376 91.3406 36.3964 86 36.3964C80.6594 36.3964 80.027 36.376 77.9183 36.2797C75.9683 36.1909 74.9093 35.8651 74.2046 35.5912C73.271 35.2283 72.6048 34.795 71.905 34.095C71.2051 33.3952 70.7717 32.729 70.4088 31.7954C70.1349 31.0907 69.8092 30.0317 69.7202 28.0817C69.624 25.9728 69.6036 25.3402 69.6036 20C69.6036 14.6598 69.624 14.0272 69.7202 11.9183C69.8092 9.96826 70.1349 8.9093 70.4088 8.20461C70.7717 7.27098 71.2051 6.60476 71.9049 5.90496C72.6048 5.20503 73.271 4.77168 74.2046 4.40883C74.9093 4.13493 75.9683 3.80912 77.9183 3.72022C80.0272 3.624 80.6598 3.60358 86 3.60358" fill="#888888"/>
<path d="M86.3804 27.5467C82.8147 27.5467 79.9243 24.4339 79.9243 20.5941C79.9243 16.7542 82.8147 13.6414 86.3804 13.6414C89.9459 13.6414 92.8364 16.7542 92.8364 20.5941C92.8364 24.4339 89.9459 27.5467 86.3804 27.5467ZM86.3804 9.88322C80.8874 9.88322 76.4346 14.6786 76.4346 20.5941C76.4346 26.5095 80.8874 31.3049 86.3804 31.3049C91.8733 31.3049 96.3261 26.5095 96.3261 20.5941C96.3261 14.6786 91.8733 9.88322 86.3804 9.88322ZM99.0433 9.46003C99.0433 10.8424 98.0027 11.963 96.7191 11.963C95.4355 11.963 94.3949 10.8424 94.3949 9.46003C94.3949 8.07769 95.4355 6.95703 96.7191 6.95703C98.0027 6.95703 99.0433 8.07769 99.0433 9.46003Z" fill="#888888"/>
<rect x="1.5" y="5.5" width="43" height="29" rx="5.5" stroke="#888888" stroke-width="3"/>
<path d="M18.75 25.9951L18.75 13.0049L30.001 19.5L18.75 25.9951Z" fill="#888888" stroke="#888888"/>
</svg>
