<svg width="40" height="40" viewBox="0 0 40 40" fill="none" xmlns="http://www.w3.org/2000/svg">
<rect x="0.5" y="0.5" width="39" height="39" rx="4.5" fill="#F0F0F0" stroke="#E7E7E7"/>
<path d="M22.0128 23.2115C22.4058 23.3425 22.8305 23.1301 22.9615 22.7372C23.0925 22.3442 22.8801 21.9195 22.4872 21.7885L22.25 22.5L22.0128 23.2115ZM20 21.75H19.25C19.25 22.0728 19.4566 22.3594 19.7628 22.4615L20 21.75ZM20.75 18.6139C20.75 18.1997 20.4142 17.8639 20 17.8639C19.5858 17.8639 19.25 18.1997 19.25 18.6139H20H20.75ZM22.25 22.5L22.4872 21.7885L20.2372 21.0385L20 21.75L19.7628 22.4615L22.0128 23.2115L22.25 22.5ZM20 21.75H20.75V18.6139H20H19.25V21.75H20ZM26 21H25.25C25.25 23.8995 22.8995 26.25 20 26.25V27V27.75C23.7279 27.75 26.75 24.7279 26.75 21H26ZM20 27V26.25C17.1005 26.25 14.75 23.8995 14.75 21H14H13.25C13.25 24.7279 16.2721 27.75 20 27.75V27ZM14 21H14.75C14.75 18.1005 17.1005 15.75 20 15.75V15V14.25C16.2721 14.25 13.25 17.2721 13.25 21H14ZM20 15V15.75C22.8995 15.75 25.25 18.1005 25.25 21H26H26.75C26.75 17.2721 23.7279 14.25 20 14.25V15Z" fill="#828282"/>
</svg>
