<svg width="85" height="85" viewBox="0 0 85 85" fill="none" xmlns="http://www.w3.org/2000/svg">
<path d="M81.5 42.5C81.5 47.6216 80.4912 52.693 78.5313 57.4247C76.5714 62.1564 73.6986 66.4557 70.0772 70.0772C66.4557 73.6986 62.1564 76.5714 57.4247 78.5313C52.693 80.4912 47.6216 81.5 42.5 81.5C37.3784 81.5 32.307 80.4912 27.5753 78.5313C22.8436 76.5714 18.5443 73.6986 14.9228 70.0772C11.3013 66.4557 8.42863 62.1563 6.4687 57.4247C4.50876 52.693 3.5 47.6215 3.5 42.5C3.5 37.3784 4.50877 32.307 6.4687 27.5753C8.42863 22.8436 11.3014 18.5443 14.9228 14.9228C18.5443 11.3013 22.8437 8.42863 27.5754 6.4687C32.307 4.50876 37.3785 3.5 42.5 3.5C47.6216 3.5 52.693 4.50877 57.4247 6.4687C62.1564 8.42863 66.4557 11.3014 70.0772 14.9228C73.6987 18.5443 76.5714 22.8437 78.5313 27.5754C80.4912 32.3071 81.5 37.3785 81.5 42.5L81.5 42.5Z" stroke="#D0D0D0" stroke-width="7"/>
<path d="M42.5 3.5C47.6215 3.5 52.693 4.50876 57.4247 6.4687C62.1563 8.42863 66.4557 11.3013 70.0772 14.9228C73.6986 18.5443 76.5714 22.8436 78.5313 27.5753C80.4912 32.307 81.5 37.3784 81.5 42.5C81.5 47.6216 80.4912 52.693 78.5313 57.4247C76.5714 62.1564 73.6986 66.4557 70.0772 70.0772C66.4557 73.6986 62.1563 76.5714 57.4247 78.5313C52.693 80.4912 47.6215 81.5 42.5 81.5C37.3784 81.5 32.307 80.4912 27.5753 78.5313C22.8436 76.5714 18.5443 73.6986 14.9228 70.0772C11.3013 66.4557 8.42863 62.1563 6.4687 57.4246C4.50876 52.693 3.5 47.6215 3.5 42.5C3.5 37.3784 4.50876 32.307 6.4687 27.5753C8.42863 22.8436 11.3014 18.5443 14.9228 14.9228C18.5443 11.3013 22.8437 8.42863 27.5753 6.46869C32.307 4.50876 37.3785 3.5 42.5 3.5L42.5 3.5Z" stroke="#2EBF54" stroke-width="7" stroke-linecap="round"/>
<path d="M52.778 34.2764L37.4467 50.7222L32.2207 45.1163" stroke="#2EBF54" stroke-width="5" stroke-linecap="round" stroke-linejoin="round"/>
</svg>
