<svg width="16" height="16" viewBox="0 0 16 16" fill="none" xmlns="http://www.w3.org/2000/svg">
<path d="M4.9939 0.00976562C5.12634 0.00976563 5.25336 0.0623797 5.34702 0.156033C5.44067 0.249687 5.49329 0.376709 5.49329 0.509155V2.00732H6.49207V0.509155C6.49207 0.376709 6.54468 0.249687 6.63833 0.156033C6.73199 0.0623797 6.85901 0.00976563 6.99146 0.00976563C7.1239 0.00976563 7.25092 0.0623797 7.34458 0.156033C7.43823 0.249687 7.49084 0.376709 7.49084 0.509155V2.00732H8.48962V0.509155C8.48962 0.376709 8.54224 0.249687 8.63589 0.156033C8.72954 0.0623797 8.85657 0.00976563 8.98901 0.00976563C9.12146 0.00976563 9.24848 0.0623797 9.34214 0.156033C9.43579 0.249687 9.4884 0.376709 9.4884 0.509155V2.00732H10.4872V0.509155C10.4872 0.376709 10.5398 0.249687 10.6334 0.156033C10.7271 0.0623797 10.8541 0.00976563 10.9866 0.00976563C11.119 0.00976563 11.246 0.0623797 11.3397 0.156033C11.4333 0.249687 11.486 0.376709 11.486 0.509155V2.00732C12.1482 2.00732 12.7833 2.27039 13.2516 2.73866C13.7198 3.20693 13.9829 3.84204 13.9829 4.50427H15.4811C15.6135 4.50427 15.7405 4.55689 15.8342 4.65054C15.9279 4.74419 15.9805 4.87122 15.9805 5.00366C15.9805 5.13611 15.9279 5.26313 15.8342 5.35678C15.7405 5.45044 15.6135 5.50305 15.4811 5.50305H13.9829V6.50183H15.4811C15.6135 6.50183 15.7405 6.55445 15.8342 6.6481C15.9279 6.74175 15.9805 6.86877 15.9805 7.00122C15.9805 7.13367 15.9279 7.26069 15.8342 7.35434C15.7405 7.448 15.6135 7.50061 15.4811 7.50061H13.9829V8.49939H15.4811C15.6135 8.49939 15.7405 8.552 15.8342 8.64566C15.9279 8.73931 15.9805 8.86633 15.9805 8.99878C15.9805 9.13123 15.9279 9.25825 15.8342 9.3519C15.7405 9.44555 15.6135 9.49817 15.4811 9.49817H13.9829V10.4969H15.4811C15.6135 10.4969 15.7405 10.5496 15.8342 10.6432C15.9279 10.7369 15.9805 10.8639 15.9805 10.9963C15.9805 11.1288 15.9279 11.2558 15.8342 11.3495C15.7405 11.4431 15.6135 11.4957 15.4811 11.4957H13.9829C13.9829 12.158 13.7198 12.7931 13.2516 13.2613C12.7833 13.7296 12.1482 13.9927 11.486 13.9927V15.4908C11.486 15.6233 11.4333 15.7503 11.3397 15.844C11.246 15.9376 11.119 15.9902 10.9866 15.9902C10.8541 15.9902 10.7271 15.9376 10.6334 15.844C10.5398 15.7503 10.4872 15.6233 10.4872 15.4908V13.9927H9.4884V15.4908C9.4884 15.6233 9.43579 15.7503 9.34214 15.844C9.24848 15.9376 9.12146 15.9902 8.98901 15.9902C8.85657 15.9902 8.72954 15.9376 8.63589 15.844C8.54224 15.7503 8.48962 15.6233 8.48962 15.4908V13.9927H7.49084V15.4908C7.49084 15.6233 7.43823 15.7503 7.34458 15.844C7.25092 15.9376 7.1239 15.9902 6.99146 15.9902C6.85901 15.9902 6.73199 15.9376 6.63833 15.844C6.54468 15.7503 6.49207 15.6233 6.49207 15.4908V13.9927H5.49329V15.4908C5.49329 15.6233 5.44067 15.7503 5.34702 15.844C5.25336 15.9376 5.12634 15.9902 4.9939 15.9902C4.86145 15.9902 4.73443 15.9376 4.64077 15.844C4.54712 15.7503 4.49451 15.6233 4.49451 15.4908V13.9927C3.83227 13.9927 3.19717 13.7296 2.7289 13.2613C2.26063 12.7931 1.99756 12.158 1.99756 11.4957H0.49939C0.366943 11.4957 0.239922 11.4431 0.146268 11.3495C0.0526141 11.2558 0 11.1288 0 10.9963C0 10.8639 0.0526141 10.7369 0.146268 10.6432C0.239922 10.5496 0.366943 10.4969 0.49939 10.4969H1.99756V9.49817H0.49939C0.366943 9.49817 0.239922 9.44555 0.146268 9.3519C0.0526141 9.25825 0 9.13123 0 8.99878C0 8.86633 0.0526141 8.73931 0.146268 8.64566C0.239922 8.552 0.366943 8.49939 0.49939 8.49939H1.99756V7.50061H0.49939C0.366943 7.50061 0.239922 7.448 0.146268 7.35434C0.0526141 7.26069 0 7.13367 0 7.00122C0 6.86877 0.0526141 6.74175 0.146268 6.6481C0.239922 6.55445 0.366943 6.50183 0.49939 6.50183H1.99756V5.50305H0.49939C0.366943 5.50305 0.239922 5.45044 0.146268 5.35678C0.0526141 5.26313 0 5.13611 0 5.00366C0 4.87122 0.0526141 4.74419 0.146268 4.65054C0.239922 4.55689 0.366943 4.50427 0.49939 4.50427H1.99756C1.99756 3.84204 2.26063 3.20693 2.7289 2.73866C3.19717 2.27039 3.83227 2.00732 4.49451 2.00732V0.509155C4.49451 0.376709 4.54712 0.249687 4.64077 0.156033C4.73443 0.0623797 4.86145 0.00976563 4.9939 0.00976563V0.00976562ZM4.49451 3.0061C4.09717 3.0061 3.7161 3.16395 3.43514 3.44491C3.15418 3.72587 2.99634 4.10693 2.99634 4.50427V11.4957C2.99634 11.8931 3.15418 12.2741 3.43514 12.5551C3.7161 12.8361 4.09717 12.9939 4.49451 12.9939H11.486C11.8833 12.9939 12.2644 12.8361 12.5453 12.5551C12.8263 12.2741 12.9841 11.8931 12.9841 11.4957V4.50427C12.9841 4.10693 12.8263 3.72587 12.5453 3.44491C12.2644 3.16395 11.8833 3.0061 11.486 3.0061H4.49451ZM4.9939 6.50183C4.9939 6.10449 5.15174 5.72343 5.4327 5.44247C5.71366 5.1615 6.09473 5.00366 6.49207 5.00366H9.4884C9.88574 5.00366 10.2668 5.1615 10.5478 5.44247C10.8287 5.72343 10.9866 6.10449 10.9866 6.50183V9.49817C10.9866 9.89551 10.8287 10.2766 10.5478 10.5575C10.2668 10.8385 9.88574 10.9963 9.4884 10.9963H6.49207C6.09473 10.9963 5.71366 10.8385 5.4327 10.5575C5.15174 10.2766 4.9939 9.89551 4.9939 9.49817V6.50183ZM6.49207 6.00244C6.35962 6.00244 6.2326 6.05506 6.13894 6.14871C6.04529 6.24236 5.99268 6.36938 5.99268 6.50183V9.49817C5.99268 9.63062 6.04529 9.75764 6.13894 9.85129C6.2326 9.94494 6.35962 9.99756 6.49207 9.99756H9.4884C9.62085 9.99756 9.74787 9.94494 9.84153 9.85129C9.93518 9.75764 9.98779 9.63062 9.98779 9.49817V6.50183C9.98779 6.36938 9.93518 6.24236 9.84153 6.14871C9.74787 6.05506 9.62085 6.00244 9.4884 6.00244H6.49207Z" fill="#FF5525"/>
</svg>
