<svg width="14" height="18" viewBox="0 0 14 18" fill="none" xmlns="http://www.w3.org/2000/svg">
<path d="M10.7613 3.17667L10.769 3.17281H10.7729L6.95117 0.978516L3.1314 3.17281H3.12755L3.14104 3.1786L0 4.98918V13.0105L6.95117 17.0212L13.9023 13.0105V4.98918L10.7613 3.17667ZM6.38621 15.3938L3.62695 13.8011V11.1093L1.128 9.69014V6.31771L6.38621 9.35077V15.3938ZM1.67175 5.32661L4.26904 3.82647L6.94732 5.36325L9.62945 3.82262L12.2364 5.32661L6.95503 8.37317L1.67175 5.32661ZM12.7743 9.69978L10.2908 11.1093V13.7914L7.51614 15.3918V9.35463L12.7743 6.32157V9.69978Z" fill="#FF5525"/>
</svg>
